<svg xmlns="http://www.w3.org/2000/svg" xmlns:xlink="http://www.w3.org/1999/xlink" width="500" zoomAndPan="magnify" viewBox="0 0 375 374.999991" height="500" preserveAspectRatio="xMidYMid meet" version="1.0"><defs><clipPath id="b2a03a9d4d"><path d="M 37.5 36 L 337.5 36 L 337.5 339.785156 L 37.5 339.785156 Z M 37.5 36 " clip-rule="nonzero"/></clipPath></defs><g clip-path="url(#b2a03a9d4d)"><path fill="#180303" d="M 336.882812 272.761719 C 335.828125 280.867188 331.066406 287.980469 325.066406 293.359375 C 319.003906 298.308594 312.199219 302.515625 304.714844 304.867188 C 297.601562 307.527344 289.996094 308.269531 282.570312 309.195312 C 277.996094 309.445312 273.355469 309.9375 268.839844 309.011719 C 262.035156 318.90625 251.085938 324.96875 240.015625 328.988281 C 234.632812 330.722656 229.375 332.699219 223.996094 334.308594 C 216.015625 337.527344 207.355469 337.957031 198.882812 337.898438 C 193.625 337.835938 188.117188 336.785156 183.726562 333.875 C 181.128906 336.472656 177.046875 336.96875 173.582031 338.082031 C 168.199219 339.691406 162.511719 338.949219 157.191406 337.710938 C 149.769531 336.472656 142.46875 334.617188 135.109375 333.011719 C 125.953125 331.527344 116.738281 329.484375 108.511719 325.15625 C 102.078125 321.566406 97.625 315.441406 93.972656 309.195312 C 88.839844 300.351562 88.839844 289.773438 90.140625 280 C 92.242188 261.503906 97.996094 243.503906 105.851562 226.679688 C 97.6875 224.453125 90.015625 220.308594 83.707031 214.617188 C 83.085938 213.9375 82.34375 213.195312 81.417969 212.453125 C 79.003906 210.042969 76.839844 207.382812 74.984375 204.535156 C 74.242188 203.238281 73.625 201.875 73.003906 200.453125 C 69.355469 203.792969 65.890625 208.1875 64.222656 213.816406 C 63.789062 215.238281 62.488281 216.101562 61.128906 216.101562 C 60.820312 216.101562 60.511719 216.042969 60.199219 215.980469 C 58.46875 215.484375 57.542969 213.691406 58.035156 211.957031 C 60.449219 203.917969 65.582031 197.980469 70.714844 193.835938 C 69.664062 189.9375 68.984375 185.917969 68.550781 182.082031 C 60.570312 184.1875 50.367188 188.578125 43.808594 197.855469 C 43.191406 198.785156 42.199219 199.214844 41.148438 199.214844 C 40.53125 199.214844 39.851562 199.03125 39.292969 198.660156 C 37.808594 197.609375 37.5 195.628906 38.488281 194.144531 C 46.46875 182.699219 58.839844 177.691406 67.996094 175.464844 C 67.808594 172.1875 67.808594 169.214844 67.871094 166.679688 C 60.261719 166.867188 51.230469 168.597656 43.625 174.472656 C 43.003906 174.90625 42.324219 175.15625 41.644531 175.15625 C 40.65625 175.15625 39.726562 174.722656 39.109375 173.917969 C 37.996094 172.496094 38.304688 170.453125 39.664062 169.402344 C 48.820312 162.351562 59.457031 160.371094 68.242188 160.246094 C 68.304688 159.816406 68.304688 159.628906 68.304688 159.628906 C 69.789062 151.277344 71.890625 142.988281 74.859375 135.011719 C 73.128906 130.929688 73.066406 126.472656 72.632812 122.144531 C 72.199219 115.957031 71.707031 109.835938 71.210938 103.648438 C 70.777344 91.898438 68.675781 79.835938 72.015625 68.328125 C 73.996094 60.472656 81.230469 54.722656 89.210938 53.917969 C 100.65625 52.679688 111.789062 57.011719 121.996094 61.710938 C 127.191406 64.246094 131.890625 67.773438 136.285156 71.421875 C 136.777344 72.164062 137.644531 71.484375 138.199219 71.238281 C 149.457031 65.359375 184.902344 50.269531 190.964844 50.019531 C 193.375 49.957031 195.726562 51.753906 195.789062 54.226562 C 196.285156 58.246094 192.941406 61.214844 190.59375 64.0625 C 193.933594 64.929688 197.519531 65.546875 200.921875 65.050781 C 215.644531 55.710938 229.933594 45.445312 246.078125 38.515625 C 251.335938 36.722656 257.085938 35.300781 262.65625 36.535156 C 268.59375 37.898438 271.3125 44.019531 273.109375 49.15625 C 275.828125 59.546875 277.6875 70.1875 277.871094 80.949219 C 278.859375 91.898438 277.808594 102.84375 278.550781 113.792969 C 278.550781 119.730469 280.839844 125.359375 281.707031 131.238281 C 282.570312 136.308594 284.675781 141.070312 285.355469 146.207031 C 285.601562 147.628906 286.222656 151.585938 286.839844 156.722656 C 295.066406 156.289062 304.777344 157.464844 313.746094 162.90625 C 315.292969 163.835938 315.726562 165.816406 314.800781 167.359375 C 314.179688 168.351562 313.128906 168.90625 312.015625 168.90625 C 311.457031 168.90625 310.839844 168.785156 310.34375 168.414062 C 302.921875 163.898438 294.632812 162.84375 287.519531 163.15625 C 287.828125 166.125 288.078125 169.214844 288.199219 172.308594 C 297.292969 173.792969 308.984375 177.628906 317.519531 187.402344 C 318.695312 188.761719 318.570312 190.804688 317.210938 191.980469 C 316.59375 192.535156 315.851562 192.785156 315.109375 192.785156 C 314.179688 192.785156 313.316406 192.414062 312.695312 191.671875 C 305.828125 183.816406 296.242188 180.414062 288.386719 178.988281 C 288.386719 183.816406 288.078125 188.269531 287.273438 191.730469 C 292.285156 195.257812 297.171875 200.269531 300.140625 207.195312 C 300.820312 208.867188 300.078125 210.722656 298.40625 211.464844 C 297.972656 211.648438 297.542969 211.710938 297.171875 211.710938 C 295.933594 211.710938 294.695312 210.96875 294.199219 209.730469 C 292.035156 204.535156 288.324219 200.578125 284.488281 197.730469 C 282.757812 200.082031 280.839844 202.308594 278.859375 204.472656 C 271.128906 211.710938 261.542969 216.597656 251.953125 220.679688 C 253.253906 221.917969 254.058594 223.464844 254.800781 225.070312 C 260.800781 238.308594 264.757812 252.414062 268.46875 266.453125 C 269.457031 270.351562 270.882812 274.246094 271.253906 278.269531 C 275.582031 275.980469 280.34375 274.433594 284.738281 272.269531 C 282.199219 268.1875 282.199219 263.113281 283.191406 258.597656 C 285.109375 250.1875 290.859375 242.949219 298.222656 238.617188 C 304.65625 235.277344 312.324219 235.339844 319.066406 237.691406 C 330.261719 240.96875 337.128906 252.785156 337.066406 264.101562 C 337.066406 266.824219 337.5 269.855469 336.882812 272.761719 Z M 336.882812 272.761719 " fill-opacity="1" fill-rule="nonzero"/></g><path fill="#f4b79b" d="M 236.984375 67.957031 C 234.820312 70.371094 232.46875 72.597656 230.550781 75.257812 C 247.808594 81.628906 263.085938 93.9375 271.746094 110.328125 C 271.3125 108.226562 272.304688 106.0625 272.304688 103.957031 C 273.230469 98.886719 272.488281 93.753906 272.613281 88.679688 C 271.996094 76.988281 271.3125 65.238281 268.65625 53.792969 C 257.273438 50.578125 242.367188 62.824219 236.984375 67.957031 Z M 78.015625 84.96875 C 79.128906 98.640625 79.871094 112.308594 80.859375 125.917969 C 83.457031 120.226562 87.417969 114.96875 91.3125 109.957031 C 97.003906 103.402344 102.386719 96.535156 108.757812 90.597656 C 99.542969 82.679688 89.769531 75.011719 78.449219 70.308594 C 77.707031 75.132812 77.769531 80.082031 78.015625 84.96875 Z M 78.015625 84.96875 " fill-opacity="1" fill-rule="nonzero"/><path fill="#ffffff" d="M 301.5 298.371094 C 301.4375 288.90625 295.746094 280.496094 288.511719 274.804688 C 286.714844 276.660156 284.304688 277.402344 281.828125 277.957031 C 284.984375 282.164062 288.078125 286.558594 289.375 291.691406 C 290.367188 294.597656 290.859375 298 289.4375 300.90625 C 293.644531 300.90625 297.542969 299.238281 301.5 298.371094 Z M 322.59375 247.527344 C 319.375 244.371094 314.550781 244.617188 310.34375 244.125 C 302.117188 243.320312 294.324219 248.328125 289.996094 255.074219 C 287.519531 258.597656 286.34375 263.546875 288.261719 267.566406 C 293.273438 266.019531 298.222656 262.308594 303.789062 263.609375 C 313.871094 265.464844 322.714844 273.566406 324.882812 283.710938 C 326.921875 278.824219 329.890625 274 329.953125 268.496094 C 330.511719 261.011719 328.964844 252.351562 322.59375 247.527344 Z M 274.777344 177.9375 C 272.984375 178.125 271.4375 176.761719 271.253906 175.03125 C 271.066406 173.238281 272.367188 171.691406 274.160156 171.503906 C 274.46875 171.445312 277.066406 171.257812 280.964844 171.445312 C 280.777344 169.03125 280.53125 166.496094 280.222656 163.898438 C 274.222656 164.949219 270.140625 166.617188 270.078125 166.679688 C 268.40625 167.359375 266.550781 166.558594 265.871094 164.949219 C 265.191406 163.277344 265.933594 161.421875 267.601562 160.742188 C 268.035156 160.558594 272.613281 158.699219 279.355469 157.527344 C 278.179688 149.980469 276.632812 142.496094 275.398438 136.929688 C 274.777344 133.835938 274.097656 130.742188 273.230469 127.648438 C 273.230469 127.585938 273.230469 127.527344 273.230469 127.527344 C 271.746094 122.390625 269.828125 117.445312 267.355469 112.742188 C 262.53125 103.835938 256.65625 95.238281 248.429688 89.050781 C 242.117188 84.90625 235.625 80.515625 228.140625 79.03125 C 226.839844 78.84375 225.171875 78.535156 224.800781 76.988281 C 223.871094 74.886719 226.035156 73.402344 227.457031 72.289062 C 238.839844 60.101562 247.6875 54.351562 252.570312 51.753906 C 255.046875 50.453125 257.769531 49.648438 260.550781 49.339844 C 262.65625 49.15625 265.3125 48.96875 267.480469 49.214844 C 266.613281 46.433594 264.199219 44.328125 261.355469 43.898438 C 260.738281 43.835938 260.117188 43.710938 259.5 43.648438 C 249.972656 44.019531 241.746094 49.402344 233.890625 54.289062 C 226.714844 58.371094 220.097656 63.257812 213.355469 67.957031 C 214.714844 68.578125 216.695312 69.503906 218.367188 70.617188 C 219.972656 71.671875 218.921875 74.144531 217.066406 73.773438 C 197.085938 69.691406 200.304688 71.546875 190.160156 70.1875 C 187.625 70.0625 185.027344 70.246094 182.613281 69.320312 C 180.015625 68.269531 179.398438 64.246094 181.5 62.453125 C 182.859375 60.722656 185.707031 60.597656 186.820312 58.804688 C 176.488281 60.84375 167.582031 66.96875 157.5625 69.875 C 144.632812 75.011719 130.222656 78.226562 119.890625 88.1875 C 117.664062 87.628906 118.40625 84.472656 119.707031 83.300781 C 123.046875 80.019531 127.933594 78.164062 130.53125 74.390625 C 117.851562 68.207031 104.488281 62.949219 90.324219 61.773438 C 87.480469 61.585938 84.386719 61.214844 81.726562 62.453125 C 80.488281 63.816406 80.488281 65.855469 79.191406 67.277344 C 84.941406 68.144531 90.015625 71.050781 95.027344 73.773438 C 100.035156 76.988281 105.417969 79.835938 109.625 84.164062 C 111.789062 86.761719 115.808594 88.867188 115.191406 92.761719 C 114.140625 93.628906 113.085938 92.761719 112.097656 92.328125 C 106.46875 96.90625 102.324219 102.96875 97.625 108.414062 C 90.449219 116.207031 84.695312 125.300781 80.859375 135.132812 C 77.828125 140.949219 75.914062 147.320312 75.171875 153.875 C 75.171875 153.875 74.550781 156.351562 73.996094 160.371094 C 80.613281 160.867188 85.253906 162.164062 85.6875 162.289062 C 87.417969 162.785156 88.40625 164.578125 87.851562 166.308594 C 87.355469 168.042969 85.5625 169.03125 83.828125 168.472656 C 83.707031 168.414062 79.4375 167.238281 73.375 166.804688 C 73.253906 169.15625 73.253906 171.691406 73.375 174.414062 C 77.273438 173.792969 79.933594 173.730469 80.304688 173.730469 C 80.304688 173.730469 80.367188 173.730469 80.367188 173.730469 C 82.160156 173.730469 83.582031 175.15625 83.582031 176.949219 C 83.582031 178.742188 82.160156 180.226562 80.429688 180.226562 C 80.304688 180.226562 77.828125 180.289062 74.058594 180.90625 C 74.488281 183.9375 75.171875 187.03125 76.160156 190.0625 C 80.738281 187.214844 84.386719 185.917969 84.757812 185.792969 C 86.429688 185.175781 88.285156 186.101562 88.902344 187.773438 C 89.519531 189.445312 88.59375 191.300781 86.921875 191.917969 C 86.859375 191.917969 83.085938 193.277344 78.632812 196.246094 C 83.335938 206.082031 91.996094 214.929688 107.210938 219.382812 C 107.210938 219.382812 107.273438 219.382812 107.273438 219.382812 C 108.140625 219.628906 109.003906 219.875 109.933594 220.125 C 116.242188 222.351562 122.613281 224.453125 129.046875 226.1875 C 131.582031 226.867188 134.242188 227.609375 136.902344 227.300781 C 138.511719 226.988281 143.210938 226.988281 142.34375 228.164062 C 140.984375 231.074219 137.519531 231.753906 134.675781 231.753906 C 126.757812 232.308594 119.273438 229.277344 111.726562 227.546875 C 109.3125 234.84375 105.914062 241.898438 103.933594 249.382812 C 101.707031 255.011719 100.964844 261.070312 99.230469 266.824219 C 97.5 273.628906 96.695312 280.558594 96.632812 287.546875 C 96.511719 293.546875 96.820312 299.855469 99.789062 305.175781 C 102.140625 311.238281 106.097656 316.804688 111.542969 320.328125 C 119.273438 324.535156 127.808594 328.246094 136.839844 327.628906 C 134.488281 326.144531 133.375 323.484375 131.953125 321.257812 C 128.429688 315.816406 126.449219 309.628906 124.097656 303.628906 C 124.035156 302.207031 124.964844 299.421875 126.882812 300.226562 C 128.550781 300.660156 129.355469 302.328125 129.972656 303.753906 C 133.191406 311.175781 136.902344 318.597656 142.40625 324.597656 C 145.6875 328.125 150.015625 329.855469 154.59375 331.09375 C 154.59375 331.09375 170.117188 337.402344 175.066406 329.792969 C 175.5625 329.050781 175.808594 328.1875 175.933594 327.132812 C 178.964844 316.679688 178.964844 305.484375 179.644531 294.660156 C 180.386719 292.371094 184.097656 292.1875 184.285156 294.90625 C 185.398438 303.011719 184.714844 311.730469 186.882812 320.082031 C 188.367188 325.710938 193.253906 329.855469 199.066406 330.164062 C 199.066406 330.164062 199.128906 330.164062 199.128906 330.164062 C 199.128906 330.164062 200.738281 330.472656 204.820312 329.546875 C 210.511719 330.164062 216.695312 329.238281 221.335938 325.585938 C 230.984375 319.464844 234.882812 307.773438 236.242188 297.011719 C 236.429688 294.785156 239.953125 293.792969 240.632812 296.207031 C 240.882812 304.929688 238.714844 313.527344 235.808594 321.691406 C 235.375 322.929688 234.324219 323.792969 233.519531 324.84375 C 236.304688 323.300781 239.457031 322.804688 242.367188 321.628906 C 248.550781 319.15625 254.613281 315.753906 259.003906 310.617188 C 263.398438 306.660156 264.757812 300.535156 264.757812 294.84375 C 264.757812 280.308594 261.046875 266.019531 256.777344 252.226562 C 254.058594 242.390625 250.53125 232.804688 246.757812 223.277344 C 239.398438 226.0625 232.222656 229.277344 224.675781 231.566406 C 219.851562 232.929688 214.222656 234.042969 209.707031 231.132812 C 208.222656 229.710938 206.488281 226 212.179688 226.433594 C 214.34375 228.101562 217.191406 227.546875 219.601562 226.929688 C 231.355469 223.585938 242.304688 217.957031 253.375 213.011719 C 258.078125 210.535156 262.59375 207.816406 266.921875 204.785156 C 270.261719 202.371094 272.800781 199.03125 275.707031 196.125 C 276.261719 195.195312 276.757812 194.207031 277.253906 193.214844 C 272.921875 191.175781 269.582031 190.308594 269.457031 190.308594 C 267.726562 189.875 266.613281 188.144531 267.046875 186.414062 C 267.480469 184.679688 269.210938 183.566406 270.941406 184 C 271.3125 184.0625 274.964844 184.929688 279.664062 187.15625 C 279.726562 187.03125 279.726562 186.90625 279.789062 186.84375 C 280.65625 184.679688 281.027344 181.585938 281.085938 177.9375 C 277.375 177.753906 274.902344 177.9375 274.777344 177.9375 Z M 143.582031 171.566406 C 142.035156 172.0625 141.046875 174.101562 139.253906 174.414062 C 135.109375 175.648438 131.644531 172.0625 130.40625 168.414062 C 128.675781 162.472656 129.171875 155.546875 132.882812 150.414062 C 133.003906 150.472656 133.3125 150.660156 133.5 150.722656 C 133.4375 150.535156 133.375 150.226562 133.375 150.101562 C 136.964844 147.320312 142.902344 149.359375 144.140625 153.753906 C 145.996094 159.257812 146.488281 165.816406 143.519531 171.011719 C 143.519531 171.132812 143.582031 171.382812 143.582031 171.566406 Z M 205.871094 183.382812 C 205.375 191.113281 198.324219 198.90625 190.160156 197.792969 C 186.324219 197.238281 183.664062 194.207031 181.4375 191.484375 C 181.191406 195.195312 176.800781 197.300781 173.519531 197.855469 C 167.707031 198.164062 162.632812 193.710938 160.40625 188.640625 C 159.726562 186.90625 158.984375 184.742188 160.285156 183.132812 C 162.199219 182.269531 164.304688 183.382812 165.417969 185.050781 C 167.707031 187.957031 170.613281 191.730469 174.882812 190.804688 C 177.914062 189.132812 178.160156 185.113281 178.65625 182.082031 C 175.128906 178.496094 172.902344 172.804688 175.128906 167.980469 C 177.480469 165.195312 182.117188 166.742188 183.789062 169.527344 C 185.707031 173.421875 185.457031 178.0625 183.914062 182.019531 C 185.582031 184.679688 187.003906 187.648438 189.601562 189.566406 C 191.582031 191.238281 194.800781 191.238281 196.59375 189.320312 C 199.066406 187.277344 199.808594 183.9375 201.789062 181.527344 C 202.964844 179.980469 206.242188 180.722656 205.871094 183.382812 Z M 227.398438 167.917969 C 224.859375 171.816406 217.746094 172.125 215.828125 167.484375 C 212.859375 162.289062 213.789062 155.917969 215.644531 150.535156 C 216.386719 148.246094 217.746094 145.957031 220.035156 144.90625 C 223.808594 143.609375 227.644531 146.515625 228.757812 150.042969 C 230.550781 155.730469 230.984375 162.722656 227.398438 167.917969 Z M 227.398438 167.917969 " fill-opacity="1" fill-rule="nonzero"/><path fill="#737373" d="M 246.882812 223.277344 C 246.882812 223.277344 239.828125 244.804688 185.519531 249.503906 C 131.210938 254.207031 111.664062 227.421875 111.664062 227.421875 C 204.570312 249.320312 246.882812 223.277344 246.882812 223.277344 Z M 246.882812 223.277344 " fill-opacity="1" fill-rule="nonzero"/><path fill="#737373" d="M 283.625 289.710938 C 282.015625 286.308594 280.285156 282.535156 277.003906 280.433594 C 275.148438 281.175781 273.230469 281.671875 271.5 282.722656 C 272.550781 288.90625 272.242188 295.339844 270.757812 301.402344 C 275.085938 301.710938 279.480469 301.710938 283.746094 301.09375 C 285.046875 297.445312 285.417969 293.300781 283.625 289.710938 Z M 316.714844 276.042969 C 313.253906 272.207031 308.859375 268.742188 303.664062 267.691406 C 300.078125 267.257812 296.367188 268.679688 293.644531 270.84375 C 297.726562 276.414062 302.738281 281.609375 304.714844 288.414062 C 305.398438 291.320312 306.632812 294.289062 306.078125 297.320312 C 311.148438 295.214844 315.851562 292.308594 320.058594 288.84375 C 320.984375 284.269531 319.683594 279.445312 316.714844 276.042969 Z M 177.230469 125.917969 C 181.4375 98.269531 154.777344 78.472656 147.417969 73.585938 C 137.457031 77.113281 127.5 80.824219 119.828125 88.1875 C 117.601562 87.628906 118.34375 84.472656 119.644531 83.300781 C 122.984375 80.019531 127.871094 78.164062 130.46875 74.390625 C 117.789062 68.207031 104.429688 62.949219 90.261719 61.773438 C 87.417969 61.585938 84.324219 61.214844 81.664062 62.453125 C 80.429688 63.816406 80.429688 65.855469 79.128906 67.277344 C 84.882812 68.144531 89.953125 71.050781 94.964844 73.773438 C 99.972656 76.988281 105.355469 79.835938 109.5625 84.164062 C 111.726562 86.761719 115.746094 88.867188 115.128906 92.761719 C 114.078125 93.628906 113.027344 92.761719 112.035156 92.328125 C 106.40625 96.90625 102.261719 102.96875 97.5625 108.414062 C 90.386719 116.207031 84.632812 125.300781 80.800781 135.132812 C 77.769531 140.949219 75.851562 147.320312 75.109375 153.875 C 75.109375 153.875 74.488281 156.351562 73.933594 160.371094 C 80.550781 160.867188 85.191406 162.164062 85.625 162.289062 C 87.355469 162.785156 88.34375 164.578125 87.789062 166.308594 C 87.292969 168.042969 85.5 169.03125 83.769531 168.472656 C 83.644531 168.414062 79.375 167.238281 73.3125 166.804688 C 73.191406 169.15625 73.191406 171.691406 73.3125 174.414062 C 77.210938 173.792969 79.871094 173.730469 80.242188 173.730469 C 80.242188 173.730469 80.304688 173.730469 80.304688 173.730469 C 82.097656 173.730469 83.519531 175.15625 83.519531 176.949219 C 83.519531 178.742188 82.097656 180.226562 80.367188 180.226562 C 80.242188 180.226562 77.769531 180.289062 73.996094 180.90625 C 74.429688 183.875 75.109375 186.90625 76.035156 189.9375 C 76.097656 190 76.097656 190 76.160156 190.0625 C 80.675781 187.277344 84.324219 185.980469 84.632812 185.855469 C 86.304688 185.238281 88.160156 186.164062 88.777344 187.835938 C 89.398438 189.503906 88.46875 191.359375 86.800781 191.980469 C 86.738281 191.980469 85.003906 192.660156 82.46875 193.957031 C 90.449219 198.101562 100.097656 200.515625 111.355469 198.722656 C 147.726562 192.90625 172.34375 157.898438 177.230469 125.917969 Z M 143.582031 171.566406 C 142.035156 172.0625 141.046875 174.101562 139.253906 174.414062 C 135.109375 175.648438 131.644531 172.0625 130.40625 168.414062 C 128.675781 162.472656 129.171875 155.546875 132.882812 150.414062 C 133.003906 150.472656 133.3125 150.660156 133.5 150.722656 C 133.4375 150.535156 133.375 150.226562 133.375 150.101562 C 136.964844 147.320312 142.902344 149.359375 144.140625 153.753906 C 145.996094 159.257812 146.488281 165.816406 143.519531 171.011719 C 143.519531 171.132812 143.582031 171.382812 143.582031 171.566406 Z M 99.601562 282.414062 C 100.53125 296.269531 101.953125 310.558594 111.542969 320.269531 C 106.097656 316.679688 102.078125 311.113281 99.789062 305.113281 C 96.820312 299.730469 96.570312 293.484375 96.632812 287.484375 C 96.695312 280.496094 97.5 273.503906 99.230469 266.761719 C 100.964844 261.011719 101.707031 254.949219 103.933594 249.320312 C 104.613281 246.722656 105.480469 244.1875 106.40625 241.648438 C 106.59375 245.484375 107.707031 251.050781 111.726562 257.113281 C 118.964844 267.9375 98.675781 268.617188 99.601562 282.414062 Z M 178.839844 308.144531 C 178.40625 314.515625 177.664062 320.886719 175.933594 327.011719 C 175.808594 328.0625 175.5625 328.988281 175.066406 329.671875 C 170.117188 337.277344 154.59375 330.96875 154.59375 330.96875 C 150.078125 329.792969 145.6875 328 142.40625 324.472656 C 138.199219 319.898438 135.046875 314.453125 132.324219 308.824219 C 132.324219 308.824219 144.386719 328.742188 159.542969 324.042969 C 172.035156 320.207031 177.355469 311.175781 178.839844 308.144531 Z M 133.066406 323.113281 C 134.058594 324.785156 135.109375 326.515625 136.839844 327.566406 C 136.40625 327.566406 136.035156 327.628906 135.601562 327.628906 C 134.367188 326.207031 133.5 324.722656 133.066406 323.113281 Z M 221.398438 325.648438 C 216.757812 329.300781 210.570312 330.226562 204.882812 329.609375 C 200.738281 330.472656 199.191406 330.226562 199.191406 330.226562 C 199.191406 330.226562 199.128906 330.226562 199.128906 330.226562 C 193.3125 329.855469 188.429688 325.773438 186.941406 320.144531 C 185.890625 316.1875 185.519531 312.226562 185.273438 308.207031 C 185.273438 308.207031 191.707031 325.03125 208.714844 320.328125 C 225.726562 315.691406 233.027344 310.742188 233.027344 310.742188 C 230.613281 316.679688 226.964844 322.125 221.398438 325.648438 Z M 234.199219 324.164062 C 234.140625 324.289062 234.140625 324.472656 234.078125 324.597656 C 233.953125 324.660156 233.769531 324.722656 233.644531 324.84375 C 233.828125 324.597656 234.015625 324.414062 234.199219 324.164062 Z M 264.199219 283.710938 C 264.078125 283.09375 261.292969 268.308594 255.417969 259.464844 C 249.417969 250.433594 230.367188 260.886719 241.253906 250.125 C 252.140625 239.359375 246.882812 223.339844 246.882812 223.339844 C 250.65625 232.804688 254.179688 242.390625 256.902344 252.289062 C 260.058594 262.496094 262.964844 273.011719 264.199219 283.710938 Z M 264.199219 283.710938 " fill-opacity="1" fill-rule="nonzero"/></svg>